#!OML:ASF X:\für Bonn\!DataBase\2005_08_12_Daniel\c3d\Daniel.ASF
:FULLY-SPECIFIED
:DEGREES
967
root 3.07202 16.616 -1.64438 -9.31196 -81.6655 -2.16487
lowerback 16.2319 -2.94696 1.03995
upperback 2.88979 -3.78308 1.14445
thorax -5.98357 -1.92316 1.42777
lowerneck -3.28991 2.62939 -5.27893
upperneck -1.81998 3.6154 -1.3361
head -0.0869826 1.8127 0.483846
rclavicle 5.31501e-014 -1.47101e-014
rhumerus -31.9797 15.2025 -94.2702
rradius 27.498
rwrist 17.388
rhand -13.3357 17.3828
rfingers 7.12502
rthumb 12.7696 -12.2067
lclavicle 5.31501e-014 -1.47101e-014
lhumerus -40.177 -22.3318 107.34
lradius 68.8245
lwrist -0.339503
lhand 22.5647 3.03295
lfingers 7.12502
lthumb 46.9164 25.7359
rfemur 5.58318 32.2715 36.4625
rtibia 36.3597
rfoot -52.7088 -26.513
rtoes 0.354218
lfemur -16.2585 -4.88616 -13.6571
ltibia 55.3052
lfoot -17.3928 -12.3256
ltoes -0.91053
968
root 3.08174 16.6167 -1.6497 -9.9494 -81.7037 -1.48657
lowerback 16.3029 -2.93732 0.998221
upperback 2.86377 -3.77756 1.10065
thorax -6.05038 -1.9189 1.409
lowerneck -3.03327 2.6525 -5.18986
upperneck -2.05843 3.61964 -1.38453
head -0.199084 1.82083 0.447822
rclavicle -2.03754e-015 7.55382e-015
rhumerus -32.106 15.3518 -94.1059
rradius 28.0136
rwrist 16.8407
rhand -13.5281 17.3573
rfingers 7.12502
rthumb 12.5841 -12.2437
lclavicle -2.03754e-015 7.55382e-015
lhumerus -40.051 -21.4735 106.946
lradius 68.3897
lwrist -1.59126
lhand 20.7488 2.81484
lfingers 7.12502
lthumb 45.232 26.2224
rfemur 5.68431 32.9025 36.6594
rtibia 36.4359
rfoot -53.3532 -26.589
rtoes 0.619268
lfemur -16.4528 -5.0616 -13.7949
ltibia 55.3326
lfoot -17.1214 -12.6824
ltoes -0.314229
969
root 3.09003 16.6213 -1.65344 -11.315 -81.729 -0.0527121
lowerback 16.3426 -2.90715 0.851284
upperback 2.85467 -3.76597 1.02779
thorax -6.0776 -1.91023 1.41461
lowerneck -2.912 2.66026 -5.12223
upperneck -2.21956 3.61534 -1.40597
head -0.26619 1.82233 0.426703
rclavicle 1.66482e-014 6.75868e-015
rhumerus -32.1484 15.3877 -93.8801
rradius 28.4689
rwrist 16.2916
rhand -13.6616 17.2477
rfingers 7.12502
rthumb 12.4554 -12.3612
lclavicle 1.66482e-014 6.75868e-015
lhumerus -39.8355 -20.4495 106.555
lradius 67.8402
lwrist -3.08439
lhand 18.8306 2.6304
lfingers 7.12502
lthumb 43.4442 26.7175
rfemur 5.67827 33.2908 36.5745
rtibia 36.5049
rfoot -53.6838 -26.6045
rtoes 0.784691
lfemur -16.5712 -5.26435 -14.0826
ltibia 55.2049
lfoot -16.8103 -13.0166
ltoes 0.275577
970
root 3.09592 16.6276 -1.65589 -13.0727 -81.7668 1.7839
lowerback 16.3871 -2.8828 0.644094
upperback 2.83951 -3.77314 0.943276
thorax -6.1106 -1.90943 1.4462
lowerneck -2.85598 2.68172 -5.07449
upperneck -2.34018 3.63471 -1.43536
head -0.310962 1.83436 0.407935
rclavicle 7.10655e-015 -9.14409e-015
rhumerus -32.1194 15.2942 -93.5853
rradius 28.7953
rwrist 15.9038
rhand -13.7138 17.2135
rfingers 7.12502
rthumb 12.405 -12.3984
lclavicle 7.10655e-015 -9.14409e-015
lhumerus -39.6109 -19.2907 106.109
lradius 67.2879
lwrist -4.71072
lhand 16.8391 2.46184
lfingers 7.12502
lthumb 41.5799 27.1911
rfemur 5.62013 33.4972 36.3142
rtibia 36.5555
rfoot -53.7964 -26.5627
rtoes 0.851241
lfemur -16.5861 -5.48379 -14.4528
ltibia 54.9141
lfoot -16.4645 -13.2986
ltoes 0.900926
971
root 3.10208 16.6408 -1.65653 -15.4646 -81.8324 4.25569
lowerback 16.4562 -2.82643 0.370983
upperback 2.82504 -3.75187 0.8239
thorax -6.15494 -1.89348 1.47327
lowerneck -2.81233 2.69208 -5.01987
upperneck -2.46084 3.64052 -1.43947
head -0.353832 1.83957 0.395996
rclavicle 1.881e-014 -9.93923e-015
rhumerus -32.0546 15.1166 -93.278
rradius 29.0391
rwrist 15.4777
rhand -13.735 17.1304
rfingers 7.12502
rthumb 12.3846 -12.4828
lclavicle 1.881e-014 -9.93923e-015
lhumerus -39.3859 -18.1439 105.65
lradius 66.7049
lwrist -6.37982
lhand 14.8626 2.29724
lfingers 7.12502
lthumb 39.7223 27.6065
rfemur 5.44072 33.3246 35.7266
rtibia 36.5636
rfoot -53.4447 -26.3834
rtoes 0.773433
lfemur -16.4879 -5.69862 -14.9352
ltibia 54.4558
lfoot -16.1236 -13.4019
ltoes 1.30468
972
root 3.10807 16.6595 -1.65465 -18.2578 -81.9402 7.12723
lowerback 16.5286 -2.7503 0.0615514
upperback 2.8173 -3.71219 0.702807
thorax -6.19218 -1.86805 1.5149
lowerneck -2.79462 2.69911 -5.04205
upperneck -2.5551 3.64659 -1.40325
head -0.386773 1.84473 0.409726
rclavicle 2.34566e-014 -4.37326e-015
rhumerus -31.9357 14.872 -92.9128
rradius 29.2558
rwrist 15.0213
rhand -13.6767 16.965
rfingers 7.12502
rthumb 12.4409 -12.6448
lclavicle 2.34566e-014 -4.37326e-015
lhumerus -39.1866 -17.0052 105.204
lradius 66.1864
lwrist -8.13078
lhand 12.8656 2.22121
lfingers 7.12502
lthumb 37.8389 28.0641
rfemur 5.23055 33.0303 34.9897
rtibia 36.5359
rfoot -52.8914 -26.0783
rtoes 0.715732
lfemur -16.2821 -5.88004 -15.4836
ltibia 53.8574
lfoot -15.8165 -13.4042
ltoes 1.50822
